<svg width="18" height="17" viewBox="0 0 18 17" fill="none" xmlns="http://www.w3.org/2000/svg">
<path d="M8.99984 16.1149C4.79942 16.1149 1.38525 12.7007 1.38525 8.50033C1.38525 4.29991 4.79942 0.885742 8.99984 0.885742C13.2003 0.885742 16.6144 4.29991 16.6144 8.50033C16.6144 12.7007 13.2003 16.1149 8.99984 16.1149ZM8.99984 1.94824C5.38734 1.94824 2.44775 4.88783 2.44775 8.50033C2.44775 12.1128 5.38734 15.0524 8.99984 15.0524C12.6123 15.0524 15.5519 12.1128 15.5519 8.50033C15.5519 4.88783 12.6123 1.94824 8.99984 1.94824Z" fill="white"/>
<path d="M6.9953 11.0357C6.86072 11.0357 6.72613 10.9861 6.61988 10.8799C6.41447 10.6745 6.41447 10.3345 6.61988 10.129L10.629 6.11988C10.8345 5.91447 11.1745 5.91447 11.3799 6.11988C11.5853 6.3253 11.5853 6.6653 11.3799 6.87072L7.37072 10.8799C7.27155 10.9861 7.12988 11.0357 6.9953 11.0357Z" fill="white"/>
<path d="M11.0045 11.0357C10.8699 11.0357 10.7353 10.9861 10.629 10.8799L6.61988 6.87072C6.41447 6.6653 6.41447 6.3253 6.61988 6.11988C6.8253 5.91447 7.1653 5.91447 7.37072 6.11988L11.3799 10.129C11.5853 10.3345 11.5853 10.6745 11.3799 10.8799C11.2736 10.9861 11.139 11.0357 11.0045 11.0357Z" fill="white"/>
</svg>
