<svg width="18" height="17" viewBox="0 0 18 17" fill="none" xmlns="http://www.w3.org/2000/svg">
<path d="M8.64567 15.4066C4.64359 15.4066 1.38525 12.1482 1.38525 8.14616C1.38525 4.14408 4.64359 0.885742 8.64567 0.885742C12.6478 0.885742 15.9061 4.14408 15.9061 8.14616C15.9061 12.1482 12.6478 15.4066 8.64567 15.4066ZM8.64567 1.94824C5.22442 1.94824 2.44775 4.73199 2.44775 8.14616C2.44775 11.5603 5.22442 14.3441 8.64567 14.3441C12.0669 14.3441 14.8436 11.5603 14.8436 8.14616C14.8436 4.73199 12.0669 1.94824 8.64567 1.94824Z" fill="#F7FBFF"/>
<path d="M16.0834 16.1141C15.9488 16.1141 15.8142 16.0645 15.7079 15.9583L14.2913 14.5416C14.0859 14.3362 14.0859 13.9962 14.2913 13.7908C14.4967 13.5854 14.8367 13.5854 15.0421 13.7908L16.4588 15.2074C16.6642 15.4129 16.6642 15.7529 16.4588 15.9583C16.3525 16.0645 16.2179 16.1141 16.0834 16.1141Z" fill="#F7FBFF"/>
</svg>
